<?xml version="1.0" encoding="UTF-8"?>
<svg xmlns="http://www.w3.org/2000/svg" xmlns:xlink="http://www.w3.org/1999/xlink" width="995px" height="995px" viewBox="0 0 995 995" version="1.1">
<defs>
<filter id="alpha" filterUnits="objectBoundingBox" x="0%" y="0%" width="100%" height="100%">
  <feColorMatrix type="matrix" in="SourceGraphic" values="0 0 0 0 1 0 0 0 0 1 0 0 0 0 1 0 0 0 1 0"/>
</filter>
<mask id="mask0">
  <g filter="url(#alpha)">
<rect x="0" y="0" width="995" height="995" style="fill:rgb(0%,0%,0%);fill-opacity:0.2;stroke:none;"/>
  </g>
</mask>
<clipPath id="clip1">
  <rect x="0" y="0" width="995" height="995"/>
</clipPath>
<g id="surface5" clip-path="url(#clip1)">
<path style=" stroke:none;fill-rule:nonzero;fill:rgb(0%,0%,0%);fill-opacity:1;" d="M 906.785156 632.550781 L 915.785156 686.71875 L 902.785156 732.335938 L 911.785156 688.144531 Z M 906.785156 632.550781 "/>
</g>
</defs>
<g id="surface1">
<path style=" stroke:none;fill-rule:nonzero;fill:rgb(94.901961%,94.901961%,94.901961%);fill-opacity:1;" d="M 812.6875 623.726562 L 171.851562 623.726562 C 162.742188 623.710938 155.359375 613.1875 155.351562 600.203125 L 155.351562 36.910156 C 155.359375 27.398438 160.765625 19.691406 167.4375 19.679688 L 816.890625 19.679688 C 823.679688 19.691406 829.179688 27.53125 829.1875 37.210938 L 829.1875 600.203125 C 829.179688 613.1875 821.796875 623.710938 812.6875 623.726562 Z M 812.6875 623.726562 "/>
<path style=" stroke:none;fill-rule:nonzero;fill:rgb(100%,100%,100%);fill-opacity:1;" d="M 789.3125 590.414062 L 192.066406 590.414062 C 183.3125 590.414062 176.1875 580.90625 176.1875 569.222656 L 176.1875 78.699219 C 176.1875 70.03125 181.46875 62.980469 187.953125 62.980469 L 793.226562 62.980469 C 799.824219 62.980469 805.1875 70.148438 805.1875 78.957031 L 805.1875 569.222656 C 805.1875 580.90625 798.066406 590.414062 789.3125 590.414062 Z M 789.3125 590.414062 "/>
<path style=" stroke:none;fill-rule:nonzero;fill:rgb(80%,80%,80%);fill-opacity:1;" d="M 828.957031 35.566406 L 155.117188 35.566406 L 155.117188 23.589844 C 155.132812 10.566406 162.539062 0.0117188 171.679688 0 L 812.398438 0 C 821.539062 0.0117188 828.945312 10.566406 828.957031 23.589844 Z M 828.957031 35.566406 "/>
<path style=" stroke:none;fill-rule:nonzero;fill:rgb(100%,100%,100%);fill-opacity:1;" d="M 189.496094 17.820312 C 189.496094 21.191406 187.578125 23.925781 185.214844 23.925781 C 182.847656 23.925781 180.929688 21.191406 180.929688 17.820312 C 180.929688 14.445312 182.847656 11.710938 185.214844 11.710938 C 187.578125 11.710938 189.496094 14.445312 189.496094 17.820312 Z M 189.496094 17.820312 "/>
<path style=" stroke:none;fill-rule:nonzero;fill:rgb(100%,100%,100%);fill-opacity:1;" d="M 205.757812 17.820312 C 205.757812 21.191406 203.839844 23.925781 201.472656 23.925781 C 199.105469 23.925781 197.1875 21.191406 197.1875 17.820312 C 197.1875 14.445312 199.105469 11.710938 201.472656 11.710938 C 203.839844 11.710938 205.757812 14.445312 205.757812 17.820312 Z M 205.757812 17.820312 "/>
<path style=" stroke:none;fill-rule:nonzero;fill:rgb(100%,100%,100%);fill-opacity:1;" d="M 222.015625 17.820312 C 222.015625 21.191406 220.097656 23.925781 217.730469 23.925781 C 215.367188 23.925781 213.449219 21.191406 213.449219 17.820312 C 213.449219 14.445312 215.367188 11.710938 217.730469 11.710938 C 220.097656 11.710938 222.015625 14.445312 222.015625 17.820312 Z M 222.015625 17.820312 "/>
<path style=" stroke:none;fill-rule:nonzero;fill:rgb(80%,80%,80%);fill-opacity:1;" d="M 723.574219 508.148438 L 260.734375 508.148438 C 251.074219 508.132812 243.246094 496.972656 243.234375 483.199219 L 243.234375 165.09375 C 243.242188 154.796875 249.097656 146.449219 256.320312 146.4375 L 727.777344 146.4375 C 735.117188 146.449219 741.066406 154.929688 741.074219 165.394531 L 741.074219 483.199219 C 741.0625 496.972656 733.234375 508.132812 723.574219 508.148438 Z M 256.320312 149.289062 C 250.203125 149.296875 245.242188 156.371094 245.234375 165.09375 L 245.234375 483.199219 C 245.242188 495.398438 252.179688 505.28125 260.734375 505.296875 L 723.574219 505.296875 C 732.128906 505.28125 739.0625 495.398438 739.074219 483.199219 L 739.074219 165.394531 C 739.066406 156.503906 734.011719 149.296875 727.777344 149.289062 Z M 256.320312 149.289062 "/>
<path style=" stroke:none;fill-rule:nonzero;fill:rgb(94.901961%,94.901961%,94.901961%);fill-opacity:1;" d="M 276.734375 483.199219 L 707.574219 483.199219 C 716.410156 483.199219 723.574219 472.988281 723.574219 460.394531 L 723.574219 194.46875 C 723.574219 181.871094 716.410156 171.660156 707.574219 171.660156 L 276.734375 171.660156 C 267.898438 171.660156 260.734375 181.871094 260.734375 194.46875 L 260.734375 460.394531 C 260.734375 472.988281 267.898438 483.199219 276.734375 483.199219 Z M 276.734375 483.199219 "/>
<path style=" stroke:none;fill-rule:nonzero;fill:rgb(80%,80%,80%);fill-opacity:1;" d="M 334.652344 236.199219 C 334.652344 243.285156 330.625 249.027344 325.652344 249.027344 C 320.683594 249.027344 316.652344 243.285156 316.652344 236.199219 C 316.652344 229.113281 320.683594 223.371094 325.652344 223.371094 C 330.625 223.371094 334.652344 229.113281 334.652344 236.199219 Z M 334.652344 236.199219 "/>
<path style=" stroke:none;fill-rule:nonzero;fill:rgb(80%,80%,80%);fill-opacity:1;" d="M 334.652344 284.664062 C 334.652344 291.75 330.625 297.496094 325.652344 297.496094 C 320.683594 297.496094 316.652344 291.75 316.652344 284.664062 C 316.652344 277.582031 320.683594 271.835938 325.652344 271.835938 C 330.625 271.835938 334.652344 277.582031 334.652344 284.664062 Z M 334.652344 284.664062 "/>
<path style=" stroke:none;fill-rule:nonzero;fill:rgb(80%,80%,80%);fill-opacity:1;" d="M 334.652344 333.132812 C 334.652344 340.21875 330.625 345.960938 325.652344 345.960938 C 320.683594 345.960938 316.652344 340.21875 316.652344 333.132812 C 316.652344 326.046875 320.683594 320.304688 325.652344 320.304688 C 330.625 320.304688 334.652344 326.046875 334.652344 333.132812 Z M 334.652344 333.132812 "/>
<path style=" stroke:none;fill-rule:nonzero;fill:rgb(80%,80%,80%);fill-opacity:1;" d="M 334.652344 381.601562 C 334.652344 388.683594 330.625 394.429688 325.652344 394.429688 C 320.683594 394.429688 316.652344 388.683594 316.652344 381.601562 C 316.652344 374.515625 320.683594 368.769531 325.652344 368.769531 C 330.625 368.769531 334.652344 374.515625 334.652344 381.601562 Z M 334.652344 381.601562 "/>
<path style=" stroke:none;fill-rule:nonzero;fill:rgb(80%,80%,80%);fill-opacity:1;" d="M 666.652344 237.625 L 370.652344 237.625 C 370.101562 237.625 369.652344 236.984375 369.652344 236.199219 C 369.652344 235.410156 370.101562 234.773438 370.652344 234.773438 L 666.652344 234.773438 C 667.207031 234.773438 667.652344 235.410156 667.652344 236.199219 C 667.652344 236.984375 667.207031 237.625 666.652344 237.625 Z M 666.652344 237.625 "/>
<path style=" stroke:none;fill-rule:nonzero;fill:rgb(80%,80%,80%);fill-opacity:1;" d="M 666.652344 286.089844 L 370.652344 286.089844 C 370.101562 286.089844 369.652344 285.453125 369.652344 284.664062 C 369.652344 283.878906 370.101562 283.242188 370.652344 283.242188 L 666.652344 283.242188 C 667.207031 283.242188 667.652344 283.878906 667.652344 284.664062 C 667.652344 285.453125 667.207031 286.089844 666.652344 286.089844 Z M 666.652344 286.089844 "/>
<path style=" stroke:none;fill-rule:nonzero;fill:rgb(80%,80%,80%);fill-opacity:1;" d="M 666.652344 334.558594 L 370.652344 334.558594 C 370.101562 334.558594 369.652344 333.921875 369.652344 333.132812 C 369.652344 332.34375 370.101562 331.707031 370.652344 331.707031 L 666.652344 331.707031 C 667.207031 331.707031 667.652344 332.34375 667.652344 333.132812 C 667.652344 333.921875 667.207031 334.558594 666.652344 334.558594 Z M 666.652344 334.558594 "/>
<path style=" stroke:none;fill-rule:nonzero;fill:rgb(80%,80%,80%);fill-opacity:1;" d="M 666.652344 383.023438 L 370.652344 383.023438 C 370.101562 383.023438 369.652344 382.386719 369.652344 381.601562 C 369.652344 380.8125 370.101562 380.175781 370.652344 380.175781 L 666.652344 380.175781 C 667.207031 380.175781 667.652344 380.8125 667.652344 381.601562 C 667.652344 382.386719 667.207031 383.023438 666.652344 383.023438 Z M 666.652344 383.023438 "/>
<path style=" stroke:none;fill-rule:nonzero;fill:rgb(0%,0%,100%);fill-opacity:1;" d="M 426.652344 431.492188 L 397.652344 431.492188 C 394.894531 431.488281 392.65625 428.300781 392.652344 424.363281 L 392.652344 385.875 C 392.65625 381.941406 394.894531 378.753906 397.652344 378.75 L 426.652344 378.75 C 429.414062 378.753906 431.648438 381.941406 431.652344 385.875 L 431.652344 424.363281 C 431.648438 428.300781 429.414062 431.488281 426.652344 431.492188 Z M 426.652344 431.492188 "/>
<path style=" stroke:none;fill-rule:nonzero;fill:rgb(0%,0%,100%);fill-opacity:1;" d="M 491.652344 431.492188 L 462.652344 431.492188 C 459.894531 431.488281 457.65625 428.300781 457.652344 424.363281 L 457.652344 337.410156 C 457.65625 333.476562 459.894531 330.285156 462.652344 330.28125 L 491.652344 330.28125 C 494.414062 330.285156 496.648438 333.476562 496.652344 337.410156 L 496.652344 424.363281 C 496.648438 428.300781 494.414062 431.488281 491.652344 431.492188 Z M 491.652344 431.492188 "/>
<path style=" stroke:none;fill-rule:nonzero;fill:rgb(0%,0%,100%);fill-opacity:1;" d="M 557.652344 431.492188 L 528.652344 431.492188 C 525.894531 431.488281 523.65625 428.300781 523.652344 424.363281 L 523.652344 288.941406 C 523.65625 285.007812 525.894531 281.820312 528.652344 281.816406 L 557.652344 281.816406 C 560.414062 281.820312 562.648438 285.007812 562.652344 288.941406 L 562.652344 424.363281 C 562.648438 428.300781 560.414062 431.488281 557.652344 431.492188 Z M 557.652344 431.492188 "/>
<path style=" stroke:none;fill-rule:nonzero;fill:rgb(0%,0%,100%);fill-opacity:1;" d="M 625.652344 431.492188 L 596.652344 431.492188 C 593.894531 431.488281 591.65625 428.300781 591.652344 424.363281 L 591.652344 241.902344 C 591.65625 237.964844 593.894531 234.777344 596.652344 234.773438 L 625.652344 234.773438 C 628.414062 234.777344 630.648438 237.964844 630.652344 241.902344 L 630.652344 424.363281 C 630.648438 428.300781 628.414062 431.488281 625.652344 431.492188 Z M 625.652344 431.492188 "/>
<path style=" stroke:none;fill-rule:nonzero;fill:rgb(24.705882%,23.921569%,33.72549%);fill-opacity:1;" d="M 666.652344 431.492188 L 370.652344 431.492188 C 370.101562 431.492188 369.652344 430.855469 369.652344 430.066406 C 369.652344 429.28125 370.101562 428.640625 370.652344 428.640625 L 666.652344 428.640625 C 667.207031 428.640625 667.652344 429.28125 667.652344 430.066406 C 667.652344 430.855469 667.207031 431.492188 666.652344 431.492188 Z M 666.652344 431.492188 "/>
<path style=" stroke:none;fill-rule:nonzero;fill:rgb(100%,72.156863%,72.156863%);fill-opacity:1;" d="M 796.703125 697.417969 C 798.339844 693.875 800.996094 691.554688 803.953125 691.074219 C 806.910156 690.59375 809.867188 692.007812 812.023438 694.929688 L 843.777344 671.570312 L 841.800781 697.890625 L 811.949219 716.039062 C 808.179688 720.988281 802.414062 721.132812 798.523438 716.382812 C 794.632812 711.632812 793.851562 703.484375 796.703125 697.417969 Z M 796.703125 697.417969 "/>
<path style=" stroke:none;fill-rule:nonzero;fill:rgb(24.705882%,23.921569%,33.72549%);fill-opacity:1;" d="M 824.023438 707.234375 C 823.304688 706.425781 822.773438 705.328125 822.5 704.082031 L 819.976562 692.449219 C 819.417969 689.867188 820.054688 687.066406 821.5625 685.433594 L 847.300781 657.722656 L 875.175781 584.003906 C 880.085938 574.992188 889.191406 573.355469 895.515625 580.355469 C 901.839844 587.355469 902.984375 600.339844 898.074219 609.351562 L 882.214844 657.066406 C 877.40625 671.546875 869.066406 683.046875 858.753906 689.417969 L 828.589844 708.070312 C 827.417969 708.792969 826.082031 708.773438 824.921875 708.011719 C 824.601562 707.804688 824.300781 707.542969 824.023438 707.234375 Z M 824.023438 707.234375 "/>
<path style=" stroke:none;fill-rule:nonzero;fill:rgb(100%,72.156863%,72.156863%);fill-opacity:1;" d="M 923.335938 518.226562 C 923.335938 537.566406 912.339844 553.242188 898.773438 553.242188 C 885.210938 553.242188 874.214844 537.566406 874.214844 518.226562 C 874.214844 498.890625 885.210938 483.214844 898.773438 483.214844 C 912.339844 483.214844 923.335938 498.890625 923.335938 518.226562 Z M 923.335938 518.226562 "/>
<path style=" stroke:none;fill-rule:nonzero;fill:rgb(100%,72.156863%,72.156863%);fill-opacity:1;" d="M 888.8125 977.519531 L 876.554688 977.519531 L 870.722656 910.109375 L 888.816406 910.109375 Z M 888.8125 977.519531 "/>
<path style=" stroke:none;fill-rule:nonzero;fill:rgb(18.431373%,18.039216%,25.490196%);fill-opacity:1;" d="M 867.796875 972.523438 L 891.4375 972.523438 L 891.4375 993.746094 L 852.910156 993.746094 C 852.910156 982.023438 859.574219 972.523438 867.796875 972.523438 Z M 867.796875 972.523438 "/>
<path style=" stroke:none;fill-rule:nonzero;fill:rgb(100%,72.156863%,72.156863%);fill-opacity:1;" d="M 928.8125 977.523438 L 916.554688 977.519531 L 910.722656 910.109375 L 928.816406 910.113281 Z M 928.8125 977.523438 "/>
<path style=" stroke:none;fill-rule:nonzero;fill:rgb(18.431373%,18.039216%,25.490196%);fill-opacity:1;" d="M 907.796875 972.527344 L 931.4375 972.527344 L 931.4375 993.746094 L 892.910156 993.746094 C 892.910156 982.027344 899.574219 972.527344 907.796875 972.527344 Z M 907.796875 972.527344 "/>
<path style=" stroke:none;fill-rule:nonzero;fill:rgb(18.431373%,18.039216%,25.490196%);fill-opacity:1;" d="M 929.707031 960.417969 L 915.339844 960.414062 C 913.308594 960.410156 911.527344 958.46875 910.996094 955.667969 L 890.316406 846.332031 C 890.25 845.980469 890.007812 845.753906 889.753906 845.816406 C 889.5 845.875 889.320312 846.195312 889.335938 846.558594 L 893.511719 950.253906 C 893.585938 952.109375 893.09375 953.921875 892.160156 955.214844 C 891.226562 956.511719 889.945312 957.167969 888.644531 957.015625 L 872.496094 955.09375 C 870.367188 954.835938 868.652344 952.472656 868.402344 949.445312 L 853.691406 731.707031 L 859.382812 736.574219 L 912.710938 723.667969 L 934.167969 953.15625 C 934.339844 954.988281 933.949219 956.835938 933.09375 958.226562 C 932.238281 959.617188 931.003906 960.417969 929.707031 960.417969 Z M 929.707031 960.417969 "/>
<path style=" stroke:none;fill-rule:nonzero;fill:rgb(24.705882%,23.921569%,33.72549%);fill-opacity:1;" d="M 871.527344 754.6875 C 865.644531 754.621094 859.878906 752.308594 854.835938 747.992188 C 853.246094 746.648438 852.394531 744.050781 852.699219 741.449219 C 854.574219 725.074219 864.382812 641.082031 873.308594 595.292969 C 876.941406 576.644531 884.976562 566.597656 897.195312 565.4375 C 915.0625 563.769531 930.945312 583.695312 932.597656 609.914062 C 935.515625 656.167969 923.664062 721.886719 918.433594 747.996094 C 918.023438 750.042969 916.921875 751.667969 915.503906 752.324219 C 914.082031 752.984375 912.523438 752.59375 911.347656 751.285156 L 900.683594 739.460938 C 899.332031 737.988281 897.429688 738.101562 896.167969 739.730469 C 887.183594 751.15625 878.644531 754.6875 871.527344 754.6875 Z M 871.527344 754.6875 "/>
<use xlink:href="#surface5" mask="url(#mask0)"/>
<path style=" stroke:none;fill-rule:nonzero;fill:rgb(18.431373%,18.039216%,25.490196%);fill-opacity:1;" d="M 912.789062 547.019531 C 914.976562 547.078125 917.144531 546.519531 919.179688 545.371094 C 920.070312 544.882812 921 544.476562 921.894531 543.988281 C 929.773438 539.644531 934.96875 527.679688 935.152344 515.640625 C 935.339844 503.597656 930.964844 491.910156 924.46875 484.207031 C 917.972656 476.503906 909.558594 472.546875 901.136719 471.632812 C 892.058594 470.648438 881.839844 473.929688 876.769531 484.703125 C 875.417969 487.570312 874.476562 491.046875 875.273438 494.511719 C 875.515625 495.554688 875.941406 496.492188 876.515625 497.226562 C 878.78125 500.101562 881.039062 497.941406 883.347656 497.75 C 886.519531 497.488281 889.371094 501.148438 890.394531 505.4375 C 891.417969 509.730469 890.96875 514.449219 890.140625 518.824219 C 889.511719 521.457031 889.113281 524.191406 888.957031 526.964844 C 888.820312 529.792969 889.722656 532.519531 891.335938 534.171875 C 893.320312 535.878906 895.921875 534.890625 897.90625 533.183594 C 899.890625 531.480469 901.605469 529.109375 903.75 527.851562 C 905.890625 526.597656 908.769531 526.875 910.019531 529.660156 C 910.414062 530.671875 910.683594 531.777344 910.8125 532.921875 C 911.929688 540.183594 911.671875 539.757812 912.789062 547.019531 Z M 912.789062 547.019531 "/>
<path style=" stroke:none;fill-rule:nonzero;fill:rgb(90.196078%,90.196078%,90.196078%);fill-opacity:1;" d="M 874.722656 928.617188 L 720.925781 852.265625 C 715.429688 849.527344 712.527344 840.964844 714.433594 833.128906 L 754.402344 669.539062 C 755.808594 663.800781 760.207031 660.769531 764.238281 662.761719 L 923.230469 741.691406 C 927.328125 743.734375 929.492188 750.113281 928.070312 755.957031 L 888.148438 919.367188 C 886.226562 927.199219 880.21875 931.335938 874.722656 928.617188 Z M 874.722656 928.617188 "/>
<path style=" stroke:none;fill-rule:nonzero;fill:rgb(100%,100%,100%);fill-opacity:1;" d="M 734.050781 842.863281 L 868.53125 909.628906 C 873.867188 912.277344 879.695312 908.257812 881.550781 900.65625 L 913.824219 768.5625 C 915.679688 760.957031 912.863281 752.648438 907.53125 750.003906 L 773.046875 683.238281 C 767.714844 680.589844 761.886719 684.609375 760.027344 692.210938 L 727.757812 824.304688 C 725.898438 831.910156 728.714844 840.21875 734.050781 842.863281 Z M 734.050781 842.863281 "/>
<path style=" stroke:none;fill-rule:nonzero;fill:rgb(0%,0%,100%);fill-opacity:1;" d="M 767.820312 750.054688 L 761.160156 746.75 C 760.40625 746.375 760.011719 745.203125 760.273438 744.128906 L 762.589844 734.636719 C 762.855469 733.566406 763.675781 733 764.429688 733.371094 L 771.089844 736.675781 C 771.839844 737.050781 772.238281 738.222656 771.976562 739.296875 L 769.65625 748.789062 C 769.394531 749.859375 768.574219 750.425781 767.820312 750.054688 Z M 767.820312 750.054688 "/>
<path style=" stroke:none;fill-rule:nonzero;fill:rgb(24.705882%,23.921569%,33.72549%);fill-opacity:1;" d="M 761.808594 774.652344 L 755.148438 771.347656 C 754.398438 770.972656 754 769.800781 754.261719 768.730469 L 756.582031 759.234375 C 756.84375 758.164062 757.667969 757.597656 758.417969 757.96875 L 765.078125 761.277344 C 765.832031 761.648438 766.226562 762.820312 765.964844 763.894531 L 763.648438 773.386719 C 763.382812 774.460938 762.5625 775.027344 761.808594 774.652344 Z M 761.808594 774.652344 "/>
<path style=" stroke:none;fill-rule:nonzero;fill:rgb(80%,80%,80%);fill-opacity:1;" d="M 755.800781 799.253906 L 749.140625 795.945312 C 748.390625 795.570312 747.992188 794.398438 748.253906 793.328125 L 750.570312 783.832031 C 750.835938 782.761719 751.65625 782.195312 752.410156 782.566406 L 759.070312 785.875 C 759.820312 786.25 760.21875 787.421875 759.957031 788.492188 L 757.636719 797.988281 C 757.375 799.058594 756.554688 799.625 755.800781 799.253906 Z M 755.800781 799.253906 "/>
<path style=" stroke:none;fill-rule:nonzero;fill:rgb(80%,80%,80%);fill-opacity:1;" d="M 812.574219 766.949219 L 780.484375 751.019531 C 779.996094 750.777344 779.636719 750.183594 779.539062 749.460938 C 779.441406 748.738281 779.621094 747.996094 780.011719 747.515625 C 780.402344 747.039062 780.945312 746.890625 781.433594 747.136719 L 813.523438 763.066406 C 814.011719 763.304688 814.371094 763.898438 814.46875 764.621094 C 814.566406 765.347656 814.386719 766.085938 813.992188 766.566406 C 813.601562 767.046875 813.0625 767.195312 812.574219 766.949219 Z M 812.574219 766.949219 "/>
<path style=" stroke:none;fill-rule:nonzero;fill:rgb(80%,80%,80%);fill-opacity:1;" d="M 806.566406 791.550781 L 774.472656 775.617188 C 773.722656 775.246094 773.324219 774.070312 773.585938 773 C 773.847656 771.925781 774.671875 771.359375 775.421875 771.734375 L 807.511719 787.664062 C 808 787.90625 808.363281 788.5 808.457031 789.222656 C 808.554688 789.945312 808.375 790.6875 807.984375 791.167969 C 807.59375 791.644531 807.050781 791.792969 806.566406 791.550781 Z M 806.566406 791.550781 "/>
<path style=" stroke:none;fill-rule:nonzero;fill:rgb(80%,80%,80%);fill-opacity:1;" d="M 800.554688 816.148438 L 768.464844 800.214844 C 767.710938 799.84375 767.316406 798.671875 767.578125 797.597656 C 767.839844 796.527344 768.660156 795.960938 769.414062 796.332031 L 801.503906 812.261719 C 802.257812 812.636719 802.652344 813.808594 802.390625 814.882812 C 802.128906 815.953125 801.308594 816.519531 800.554688 816.148438 Z M 800.554688 816.148438 "/>
<path style=" stroke:none;fill-rule:nonzero;fill:rgb(0%,0%,100%);fill-opacity:1;" d="M 885.953125 829.476562 C 886.1875 828.675781 886.40625 827.863281 886.609375 827.035156 C 892.101562 804.554688 883.769531 779.980469 868 772.152344 L 857.449219 815.324219 Z M 885.953125 829.476562 "/>
<path style=" stroke:none;fill-rule:nonzero;fill:rgb(24.705882%,23.921569%,33.72549%);fill-opacity:1;" d="M 854.382812 817.953125 L 864.929688 774.777344 C 849.386719 767.058594 832.363281 778.484375 826.636719 800.488281 C 820.90625 822.488281 828.578125 846.976562 843.894531 855.585938 C 859.207031 864.191406 876.539062 853.753906 882.886719 832.101562 Z M 854.382812 817.953125 "/>
<path style=" stroke:none;fill-rule:nonzero;fill:rgb(100%,72.156863%,72.156863%);fill-opacity:1;" d="M 892.144531 756.019531 C 891.902344 751.789062 892.988281 747.625 895.105469 744.648438 C 897.226562 741.667969 900.160156 740.183594 903.125 740.585938 L 917.996094 694.265625 L 927.839844 716.714844 L 912.207031 757.257812 C 911.382812 764.464844 906.90625 769.65625 901.789062 769.339844 C 896.671875 769.023438 892.527344 763.300781 892.144531 756.019531 Z M 892.144531 756.019531 "/>
<path style=" stroke:none;fill-rule:nonzero;fill:rgb(24.705882%,23.921569%,33.72549%);fill-opacity:1;" d="M 917.894531 739.707031 C 916.976562 739.707031 916.085938 739.308594 915.332031 738.566406 L 908.308594 731.636719 C 906.753906 730.09375 906.039062 727.332031 906.519531 724.71875 L 914.773438 680.273438 L 904.796875 597.746094 C 904.765625 590.359375 907.503906 583.507812 911.976562 579.78125 C 916.453125 576.050781 921.984375 576.011719 926.484375 579.679688 C 930.984375 583.34375 933.769531 590.15625 933.789062 597.546875 L 941.964844 649.039062 C 944.449219 664.667969 942.863281 681.050781 937.507812 695.140625 L 921.847656 736.347656 C 921.238281 737.949219 920.179688 739.105469 918.9375 739.53125 C 918.597656 739.648438 918.246094 739.707031 917.894531 739.707031 Z M 917.894531 739.707031 "/>
<path style=" stroke:none;fill-rule:nonzero;fill:rgb(80%,80%,80%);fill-opacity:1;" d="M 994 994.546875 L 804 994.546875 C 803.449219 994.546875 803 993.90625 803 993.121094 C 803 992.332031 803.449219 991.695312 804 991.695312 L 994 991.695312 C 994.550781 991.695312 995 992.332031 995 993.121094 C 995 993.90625 994.550781 994.546875 994 994.546875 Z M 994 994.546875 "/>
<path style=" stroke:none;fill-rule:nonzero;fill:rgb(62.745098%,38.039216%,41.568627%);fill-opacity:1;" d="M 490.539062 976.808594 L 502.800781 976.808594 L 508.632812 909.398438 L 490.539062 909.398438 Z M 490.539062 976.808594 "/>
<path style=" stroke:none;fill-rule:nonzero;fill:rgb(18.431373%,18.039216%,25.490196%);fill-opacity:1;" d="M 487.414062 971.105469 L 511.558594 971.101562 C 520.054688 971.101562 526.945312 980.921875 526.945312 993.035156 L 526.945312 993.746094 L 487.414062 993.75 Z M 487.414062 971.105469 "/>
<path style=" stroke:none;fill-rule:nonzero;fill:rgb(62.745098%,38.039216%,41.568627%);fill-opacity:1;" d="M 441.539062 976.808594 L 453.800781 976.808594 L 459.632812 909.398438 L 441.539062 909.398438 Z M 441.539062 976.808594 "/>
<path style=" stroke:none;fill-rule:nonzero;fill:rgb(18.431373%,18.039216%,25.490196%);fill-opacity:1;" d="M 438.414062 971.105469 L 462.558594 971.101562 C 471.054688 971.101562 477.945312 980.921875 477.945312 993.035156 L 477.945312 993.746094 L 438.414062 993.75 Z M 438.414062 971.105469 "/>
<path style=" stroke:none;fill-rule:nonzero;fill:rgb(62.745098%,38.039216%,41.568627%);fill-opacity:1;" d="M 517.550781 475.117188 C 517.550781 494.453125 506.554688 510.128906 492.988281 510.128906 C 479.421875 510.128906 468.425781 494.453125 468.425781 475.117188 C 468.425781 455.777344 479.421875 440.105469 492.988281 440.105469 C 506.554688 440.105469 517.550781 455.777344 517.550781 475.117188 Z M 517.550781 475.117188 "/>
<path style=" stroke:none;fill-rule:nonzero;fill:rgb(18.431373%,18.039216%,25.490196%);fill-opacity:1;" d="M 509.503906 962.261719 L 486.753906 962.261719 C 485.550781 962.261719 484.398438 961.574219 483.554688 960.355469 C 482.707031 959.132812 482.238281 957.480469 482.253906 955.769531 L 483.578125 801.769531 C 483.585938 800.632812 482.972656 799.683594 482.175781 799.609375 C 481.382812 799.53125 480.683594 800.355469 480.585938 801.484375 L 467.347656 956.621094 C 467.070312 959.839844 465.152344 962.257812 462.878906 962.261719 L 439.910156 962.261719 C 438.65625 962.261719 437.457031 961.515625 436.605469 960.203125 C 435.753906 958.886719 435.328125 957.128906 435.425781 955.347656 L 450.589844 678.691406 L 451.003906 678.628906 L 523.632812 667.445312 L 514 956.152344 C 513.886719 959.574219 511.90625 962.265625 509.503906 962.261719 Z M 509.503906 962.261719 "/>
<path style=" stroke:none;fill-rule:nonzero;fill:rgb(24.705882%,23.921569%,33.72549%);fill-opacity:1;" d="M 451.476562 695.675781 C 449.050781 695.667969 447.066406 692.917969 446.992188 689.460938 C 446.59375 671.96875 445.914062 611.441406 453.8125 567.003906 C 458.238281 542.078125 473.589844 524.222656 491.605469 523.042969 C 509.320312 521.664062 525.664062 536.609375 532.164062 560.140625 C 545.441406 608.183594 557.984375 667.402344 542.347656 676.691406 C 521.851562 688.863281 467.824219 694.289062 451.75 695.664062 C 451.660156 695.671875 451.566406 695.675781 451.476562 695.675781 Z M 451.476562 695.675781 "/>
<path style=" stroke:none;fill-rule:nonzero;fill:rgb(62.745098%,38.039216%,41.568627%);fill-opacity:1;" d="M 545.347656 439.730469 C 545.734375 440.292969 546.148438 440.816406 546.59375 441.285156 L 544.015625 511.886719 L 533.289062 519.714844 L 539.460938 544.328125 L 559.390625 533.101562 C 562.699219 531.238281 564.746094 526.488281 564.417969 521.441406 L 559.195312 441.359375 C 562.695312 437.636719 564.210938 431.21875 563.007812 425.238281 C 561.804688 419.257812 558.132812 414.964844 553.78125 414.453125 C 549.433594 413.941406 545.3125 417.316406 543.4375 422.9375 C 541.5625 428.554688 542.324219 435.242188 545.347656 439.730469 Z M 545.347656 439.730469 "/>
<path style=" stroke:none;fill-rule:nonzero;fill:rgb(24.705882%,23.921569%,33.72549%);fill-opacity:1;" d="M 544.21875 514.515625 L 551.761719 545.074219 C 552.195312 546.835938 552.070312 548.777344 551.421875 550.394531 C 550.769531 552.011719 549.65625 553.148438 548.375 553.503906 L 526.128906 559.644531 C 519.617188 562.851562 512.511719 557.941406 510.246094 548.671875 C 507.976562 539.398438 511.402344 529.257812 517.898438 526 L 537.875 510.96875 C 539.03125 510.101562 540.398438 509.992188 541.617188 510.671875 C 542.832031 511.351562 543.785156 512.753906 544.21875 514.515625 Z M 544.21875 514.515625 "/>
<path style=" stroke:none;fill-rule:nonzero;fill:rgb(62.745098%,38.039216%,41.568627%);fill-opacity:1;" d="M 438.960938 439.730469 C 438.574219 440.292969 438.15625 440.816406 437.714844 441.285156 L 440.292969 511.886719 L 451.015625 519.714844 L 444.847656 544.328125 L 424.917969 533.101562 C 421.609375 531.238281 419.5625 526.488281 419.890625 521.441406 L 425.113281 441.359375 C 421.613281 437.636719 420.09375 431.21875 421.296875 425.238281 C 422.503906 419.257812 426.175781 414.964844 430.527344 414.453125 C 434.875 413.941406 438.992188 417.316406 440.867188 422.9375 C 442.742188 428.554688 441.984375 435.242188 438.960938 439.730469 Z M 438.960938 439.730469 "/>
<path style=" stroke:none;fill-rule:nonzero;fill:rgb(24.705882%,23.921569%,33.72549%);fill-opacity:1;" d="M 442.691406 510.671875 C 443.910156 509.988281 445.277344 510.097656 446.433594 510.96875 L 466.40625 526 C 472.90625 529.257812 476.332031 539.398438 474.0625 548.671875 C 471.796875 557.941406 464.691406 562.851562 458.179688 559.644531 L 435.933594 553.503906 C 434.648438 553.148438 433.535156 552.011719 432.886719 550.394531 C 432.234375 548.777344 432.109375 546.835938 432.542969 545.074219 L 440.089844 514.515625 C 440.523438 512.753906 441.472656 511.351562 442.691406 510.671875 Z M 442.691406 510.671875 "/>
<path style=" stroke:none;fill-rule:nonzero;fill:rgb(18.431373%,18.039216%,25.490196%);fill-opacity:1;" d="M 502.527344 481.082031 C 502.265625 471.957031 505.8125 463.472656 511.566406 459.460938 C 519.035156 453.96875 523.722656 442.25 521.667969 431.546875 C 519.039062 417.851562 505.960938 408.964844 495.363281 413.679688 C 492.496094 415.128906 489.730469 416.960938 487.101562 419.152344 L 480.179688 424.441406 C 477.222656 426.550781 474.371094 428.953125 471.644531 431.625 C 463.332031 440.355469 459.011719 454.847656 460.375 469.441406 C 461.738281 483.367188 468.136719 496.136719 476.894531 504.882812 C 480.242188 508.449219 484.109375 510.898438 488.210938 512.054688 C 492.410156 513.039062 497.082031 511.917969 500.152344 508.199219 C 504.949219 502.382812 504.453125 492.644531 502.902344 484.511719 C 502.695312 483.390625 502.570312 482.242188 502.527344 481.082031 Z M 502.527344 481.082031 "/>
<path style=" stroke:none;fill-rule:nonzero;fill:rgb(80%,80%,80%);fill-opacity:1;" d="M 586 994.546875 L 396 994.546875 C 395.449219 994.546875 395 993.90625 395 993.121094 C 395 992.332031 395.449219 991.695312 396 991.695312 L 586 991.695312 C 586.550781 991.695312 587 992.332031 587 993.121094 C 587 993.90625 586.550781 994.546875 586 994.546875 Z M 586 994.546875 "/>
<path style=" stroke:none;fill-rule:nonzero;fill:rgb(90.196078%,90.196078%,90.196078%);fill-opacity:1;" d="M 275.910156 734.496094 L 119.132812 826.179688 C 113.527344 829.445312 107.121094 825.628906 104.816406 817.644531 L 56.824219 650.886719 C 55.144531 645.03125 57.109375 638.34375 61.210938 635.9375 L 223.289062 541.152344 C 227.464844 538.714844 232.238281 541.5625 233.957031 547.511719 L 281.894531 714.089844 C 284.1875 722.078125 281.511719 731.207031 275.910156 734.496094 Z M 275.910156 734.496094 "/>
<path style=" stroke:none;fill-rule:nonzero;fill:rgb(100%,100%,100%);fill-opacity:1;" d="M 124.8125 805.953125 L 261.902344 725.78125 C 267.339844 722.601562 269.9375 713.742188 267.707031 705.992188 L 228.953125 571.335938 C 226.722656 563.585938 220.507812 559.882812 215.074219 563.0625 L 77.980469 643.234375 C 72.546875 646.410156 69.945312 655.269531 72.175781 663.019531 L 110.929688 797.675781 C 113.160156 805.425781 119.375 809.132812 124.8125 805.953125 Z M 124.8125 805.953125 "/>
<path style=" stroke:none;fill-rule:nonzero;fill:rgb(90.196078%,90.196078%,90.196078%);fill-opacity:1;" d="M 226.179688 609.238281 L 228.195312 608.058594 L 228.335938 608.539062 L 226.320312 609.714844 Z M 226.179688 609.238281 "/>
<path style=" stroke:none;fill-rule:nonzero;fill:rgb(90.196078%,90.196078%,90.196078%);fill-opacity:1;" d="M 222.246094 612.097656 L 218.175781 614.480469 L 218.039062 614 L 222.109375 611.617188 Z M 214.105469 616.859375 L 210.03125 619.242188 L 209.894531 618.761719 L 213.964844 616.382812 Z M 205.960938 621.621094 L 201.886719 624.003906 L 201.75 623.523438 L 205.824219 621.144531 Z M 197.816406 626.386719 L 193.746094 628.765625 L 193.605469 628.289062 L 197.679688 625.90625 Z M 189.671875 631.148438 L 185.601562 633.527344 L 185.464844 633.050781 L 189.535156 630.667969 Z M 181.53125 635.910156 L 177.457031 638.289062 L 177.320312 637.8125 L 181.390625 635.429688 Z M 173.386719 640.671875 L 169.3125 643.054688 L 169.175781 642.574219 L 173.25 640.191406 Z M 165.242188 645.433594 L 161.171875 647.816406 L 161.03125 647.335938 L 165.105469 644.957031 Z M 157.097656 650.195312 L 153.027344 652.578125 L 152.890625 652.097656 L 156.960938 649.71875 Z M 148.957031 654.960938 L 144.882812 657.339844 L 144.746094 656.863281 L 148.816406 654.480469 Z M 140.8125 659.722656 L 136.742188 662.101562 L 136.601562 661.625 L 140.675781 659.242188 Z M 132.667969 664.484375 L 128.597656 666.863281 L 128.457031 666.386719 L 132.53125 664.003906 Z M 124.523438 669.246094 L 120.453125 671.628906 L 120.316406 671.148438 L 124.386719 668.769531 Z M 116.382812 674.007812 L 112.308594 676.390625 L 112.171875 675.910156 L 116.242188 673.53125 Z M 108.238281 678.769531 L 104.167969 681.152344 L 104.027344 680.671875 L 108.101562 678.292969 Z M 100.09375 683.535156 L 96.023438 685.914062 L 95.886719 685.4375 L 99.957031 683.054688 Z M 100.09375 683.535156 "/>
<path style=" stroke:none;fill-rule:nonzero;fill:rgb(90.196078%,90.196078%,90.196078%);fill-opacity:1;" d="M 89.796875 688.996094 L 91.8125 687.816406 L 91.949219 688.296875 L 89.933594 689.476562 Z M 89.796875 688.996094 "/>
<path style=" stroke:none;fill-rule:nonzero;fill:rgb(90.196078%,90.196078%,90.196078%);fill-opacity:1;" d="M 172.820312 692.472656 L 174.835938 691.292969 L 174.972656 691.773438 L 172.960938 692.949219 Z M 172.820312 692.472656 "/>
<path style=" stroke:none;fill-rule:nonzero;fill:rgb(90.196078%,90.196078%,90.196078%);fill-opacity:1;" d="M 168.949219 695.296875 L 164.9375 697.640625 L 164.796875 697.164062 L 168.808594 694.816406 Z M 160.925781 699.988281 L 156.914062 702.332031 L 156.777344 701.855469 L 160.789062 699.507812 Z M 152.902344 704.679688 L 148.890625 707.023438 L 148.753906 706.546875 L 152.765625 704.199219 Z M 144.878906 709.371094 L 140.867188 711.71875 L 140.730469 711.238281 L 144.742188 708.890625 Z M 136.859375 714.0625 L 132.847656 716.410156 L 132.707031 715.929688 L 136.71875 713.585938 Z M 128.835938 718.753906 L 124.824219 721.101562 L 124.6875 720.621094 L 128.695312 718.277344 Z M 120.8125 723.445312 L 116.800781 725.792969 L 116.664062 725.3125 L 120.675781 722.96875 Z M 112.789062 728.136719 L 108.777344 730.484375 L 108.640625 730.003906 L 112.652344 727.660156 Z M 112.789062 728.136719 "/>
<path style=" stroke:none;fill-rule:nonzero;fill:rgb(90.196078%,90.196078%,90.196078%);fill-opacity:1;" d="M 102.613281 733.527344 L 104.628906 732.351562 L 104.765625 732.828125 L 102.75 734.007812 Z M 102.613281 733.527344 "/>
<path style=" stroke:none;fill-rule:nonzero;fill:rgb(90.196078%,90.196078%,90.196078%);fill-opacity:1;" d="M 139.582031 736.527344 L 141.597656 735.347656 L 141.734375 735.824219 L 139.71875 737.003906 Z M 139.582031 736.527344 "/>
<path style=" stroke:none;fill-rule:nonzero;fill:rgb(90.196078%,90.196078%,90.196078%);fill-opacity:1;" d="M 135.59375 739.417969 L 131.464844 741.832031 L 131.328125 741.351562 L 135.457031 738.9375 Z M 127.339844 744.246094 L 123.210938 746.660156 L 123.074219 746.179688 L 127.203125 743.765625 Z M 119.085938 749.070312 L 114.957031 751.484375 L 114.820312 751.007812 L 118.945312 748.59375 Z M 119.085938 749.070312 "/>
<path style=" stroke:none;fill-rule:nonzero;fill:rgb(90.196078%,90.196078%,90.196078%);fill-opacity:1;" d="M 108.675781 754.597656 L 110.691406 753.421875 L 110.832031 753.898438 L 108.816406 755.078125 Z M 108.675781 754.597656 "/>
<path style=" stroke:none;fill-rule:nonzero;fill:rgb(90.196078%,90.196078%,90.196078%);fill-opacity:1;" d="M 149.929688 772.480469 L 151.945312 771.300781 L 152.082031 771.78125 L 150.066406 772.960938 Z M 149.929688 772.480469 "/>
<path style=" stroke:none;fill-rule:nonzero;fill:rgb(90.196078%,90.196078%,90.196078%);fill-opacity:1;" d="M 145.941406 775.375 L 141.8125 777.789062 L 141.675781 777.308594 L 145.804688 774.894531 Z M 137.6875 780.199219 L 133.558594 782.613281 L 133.421875 782.136719 L 137.550781 779.722656 Z M 129.433594 785.027344 L 125.304688 787.441406 L 125.167969 786.960938 L 129.296875 784.550781 Z M 129.433594 785.027344 "/>
<path style=" stroke:none;fill-rule:nonzero;fill:rgb(90.196078%,90.196078%,90.196078%);fill-opacity:1;" d="M 119.027344 790.554688 L 121.039062 789.375 L 121.179688 789.855469 L 119.164062 791.035156 Z M 119.027344 790.554688 "/>
<path style=" stroke:none;fill-rule:nonzero;fill:rgb(0%,0%,100%);fill-opacity:1;" d="M 130.632812 784.753906 L 246.808594 716.816406 C 252.660156 713.378906 255.460938 703.839844 253.066406 695.484375 L 229.59375 613.925781 L 229.363281 614.070312 L 200.855469 711.242188 L 179.710938 698.640625 C 178.921875 698.164062 178.019531 698.246094 177.277344 698.855469 C 176.726562 699.328125 176.300781 700.046875 176.0625 700.898438 L 161.121094 751.820312 L 145.664062 742.609375 C 144.257812 741.769531 142.644531 742.714844 142.058594 744.714844 C 141.960938 745.0625 132.429688 778.398438 130.632812 784.753906 Z M 130.632812 784.753906 "/>
<path style=" stroke:none;fill-rule:nonzero;fill:rgb(24.705882%,23.921569%,33.72549%);fill-opacity:1;" d="M 130.273438 785.523438 L 129.941406 785.324219 L 141.894531 744.574219 C 142.554688 742.335938 144.359375 741.277344 145.933594 742.210938 L 161.085938 751.246094 L 175.941406 700.605469 C 176.601562 698.367188 178.410156 697.308594 179.980469 698.246094 L 200.820312 710.667969 L 229.476562 612.988281 L 229.8125 613.1875 L 201.015625 711.34375 L 179.839844 698.722656 C 178.453125 697.894531 176.859375 698.828125 176.277344 700.804688 L 161.28125 751.921875 L 145.792969 742.691406 C 144.40625 741.867188 142.8125 742.796875 142.230469 744.773438 Z M 130.273438 785.523438 "/>
<path style=" stroke:none;fill-rule:nonzero;fill:rgb(24.705882%,23.921569%,33.72549%);fill-opacity:1;" d="M 144.207031 735.585938 C 144.207031 737.585938 143.070312 739.210938 141.667969 739.210938 C 140.261719 739.210938 139.125 737.585938 139.125 735.585938 C 139.125 733.585938 140.261719 731.964844 141.667969 731.964844 C 143.070312 731.964844 144.207031 733.585938 144.207031 735.585938 Z M 144.207031 735.585938 "/>
<path style=" stroke:none;fill-rule:nonzero;fill:rgb(24.705882%,23.921569%,33.72549%);fill-opacity:1;" d="M 177.445312 691.53125 C 177.445312 693.53125 176.308594 695.15625 174.90625 695.15625 C 173.5 695.15625 172.363281 693.53125 172.363281 691.53125 C 172.363281 689.53125 173.5 687.910156 174.90625 687.910156 C 176.308594 687.910156 177.445312 689.53125 177.445312 691.53125 Z M 177.445312 691.53125 "/>
<path style=" stroke:none;fill-rule:nonzero;fill:rgb(24.705882%,23.921569%,33.72549%);fill-opacity:1;" d="M 229.203125 608.171875 C 229.203125 610.171875 228.066406 611.792969 226.664062 611.792969 C 225.257812 611.792969 224.121094 610.171875 224.121094 608.171875 C 224.121094 606.167969 225.257812 604.546875 226.664062 604.546875 C 228.066406 604.546875 229.203125 606.167969 229.203125 608.171875 Z M 229.203125 608.171875 "/>
<path style=" stroke:none;fill-rule:nonzero;fill:rgb(100%,72.156863%,72.156863%);fill-opacity:1;" d="M 84.402344 731.476562 C 87.074219 729.578125 89.023438 726.089844 89.71875 721.949219 C 90.417969 717.804688 89.792969 713.4375 88.011719 710.019531 L 95.558594 604.808594 L 79.246094 604.808594 L 73.246094 707.539062 C 69.328125 712.289062 68.519531 720.464844 71.367188 726.570312 C 74.210938 732.675781 79.8125 734.785156 84.402344 731.476562 Z M 84.402344 731.476562 "/>
<path style=" stroke:none;fill-rule:nonzero;fill:rgb(100%,72.156863%,72.156863%);fill-opacity:1;" d="M 122.460938 513.847656 C 122.460938 532.019531 112.125 546.746094 99.378906 546.746094 C 86.632812 546.746094 76.300781 532.019531 76.300781 513.847656 C 76.300781 495.675781 86.632812 480.945312 99.378906 480.945312 C 112.125 480.945312 122.460938 495.675781 122.460938 513.847656 Z M 122.460938 513.847656 "/>
<path style=" stroke:none;fill-rule:nonzero;fill:rgb(100%,39.607843%,51.764706%);fill-opacity:1;" d="M 103.726562 666.078125 C 101.824219 666.078125 100.160156 664.269531 99.65625 661.660156 C 97.808594 652.082031 92.996094 635.890625 85.359375 613.53125 C 81.871094 603.308594 81.613281 591.449219 84.644531 580.9375 C 87.679688 570.425781 93.714844 562.257812 101.238281 558.488281 C 108.359375 554.902344 116.195312 555.578125 122.964844 560.363281 C 129.730469 565.144531 134.851562 573.625 137.160156 583.875 C 143.082031 610.335938 142.796875 638.679688 142.398438 649.636719 C 142.296875 652.351562 140.9375 654.632812 139.078125 655.214844 L 104.632812 665.941406 C 104.332031 666.03125 104.03125 666.078125 103.726562 666.078125 Z M 103.726562 666.078125 "/>
<path style=" stroke:none;fill-rule:nonzero;fill:rgb(100%,72.156863%,72.156863%);fill-opacity:1;" d="M 137.082031 978.5 L 148.601562 978.5 L 154.082031 915.15625 L 137.078125 915.15625 Z M 137.082031 978.5 "/>
<path style=" stroke:none;fill-rule:nonzero;fill:rgb(18.431373%,18.039216%,25.490196%);fill-opacity:1;" d="M 170.820312 993.746094 L 134.613281 993.75 L 134.613281 973.808594 L 156.832031 973.808594 C 164.558594 973.804688 170.820312 982.734375 170.820312 993.746094 Z M 170.820312 993.746094 "/>
<path style=" stroke:none;fill-rule:nonzero;fill:rgb(100%,72.156863%,72.156863%);fill-opacity:1;" d="M 21.882812 957.21875 L 31.976562 965.128906 L 58.191406 913.386719 L 43.289062 901.707031 Z M 21.882812 957.21875 "/>
<path style=" stroke:none;fill-rule:nonzero;fill:rgb(18.431373%,18.039216%,25.490196%);fill-opacity:1;" d="M 46.292969 993.75 L 14.566406 968.882812 L 21.304688 951.410156 L 40.773438 966.667969 C 47.546875 971.972656 50.015625 984.097656 46.292969 993.75 Z M 46.292969 993.75 "/>
<path style=" stroke:none;fill-rule:nonzero;fill:rgb(18.431373%,18.039216%,25.490196%);fill-opacity:1;" d="M 136.542969 943.339844 C 134.421875 943.339844 132.628906 941.089844 132.355469 938.089844 L 117.945312 779.824219 C 117.816406 778.386719 117.050781 777.234375 116.054688 776.964844 C 115.054688 776.695312 114.050781 777.367188 113.558594 778.636719 L 53.515625 933.929688 C 52.488281 936.550781 50.273438 937.710938 48.304688 936.65625 L 35.21875 929.546875 C 34.152344 928.96875 33.296875 927.804688 32.84375 926.320312 C 32.390625 924.832031 32.375 923.144531 32.804688 921.644531 L 74.402344 775.984375 C 74.507812 775.613281 74.578125 775.226562 74.613281 774.832031 C 80.246094 712.671875 94.582031 681.058594 98.839844 672.851562 C 99.472656 671.628906 99.644531 670.042969 99.304688 668.601562 L 98.722656 666.097656 C 98.246094 664.078125 98.554688 661.847656 99.535156 660.234375 C 114.882812 635.320312 141.628906 648.914062 141.898438 649.054688 L 142.03125 649.125 L 142.117188 649.289062 C 172.109375 707.925781 161.019531 898.371094 158.492188 935.953125 C 158.296875 938.867188 156.65625 941.160156 154.609375 941.378906 L 136.871094 943.324219 C 136.761719 943.335938 136.652344 943.339844 136.542969 943.339844 Z M 136.542969 943.339844 "/>
<path style=" stroke:none;fill-rule:nonzero;fill:rgb(100%,72.156863%,72.156863%);fill-opacity:1;" d="M 189.105469 552.066406 C 188.992188 552.789062 188.914062 553.523438 188.882812 554.261719 L 148.515625 587.457031 L 138.703125 579.40625 L 128.242188 598.925781 L 144.640625 615.585938 C 147.363281 618.351562 151.035156 618.222656 153.660156 615.273438 L 195.285156 568.460938 C 199.132812 570.492188 203.457031 568.917969 206.148438 564.507812 C 208.84375 560.097656 209.339844 553.773438 207.398438 548.621094 C 205.457031 543.472656 201.484375 540.570312 197.417969 541.335938 C 193.351562 542.101562 190.042969 546.371094 189.105469 552.066406 Z M 189.105469 552.066406 "/>
<path style=" stroke:none;fill-rule:nonzero;fill:rgb(100%,39.607843%,51.764706%);fill-opacity:1;" d="M 147.164062 589.03125 L 134.117188 613.132812 C 133.367188 614.523438 132.230469 615.375 131 615.472656 C 129.773438 615.566406 128.578125 614.894531 127.722656 613.632812 L 112.953125 591.769531 C 107.851562 586.09375 106.933594 575.597656 110.90625 568.308594 C 114.875 561.019531 122.234375 559.683594 127.355469 565.324219 L 145.882812 580.089844 C 146.953125 580.945312 147.714844 582.421875 147.960938 584.140625 C 148.207031 585.859375 147.914062 587.644531 147.164062 589.03125 Z M 147.164062 589.03125 "/>
<path style=" stroke:none;fill-rule:nonzero;fill:rgb(100%,39.607843%,51.764706%);fill-opacity:1;" d="M 96.597656 630.90625 L 75.582031 625.496094 C 74.371094 625.1875 73.316406 624.140625 72.691406 622.628906 C 72.066406 621.121094 71.933594 619.296875 72.324219 617.636719 L 79.140625 588.882812 C 80.324219 579.808594 86.4375 573.816406 92.804688 575.480469 C 99.171875 577.148438 103.390625 585.847656 102.242188 594.925781 L 101.574219 625.167969 C 101.535156 626.917969 100.964844 628.558594 100.007812 629.660156 C 99.054688 630.765625 97.808594 631.21875 96.597656 630.90625 Z M 96.597656 630.90625 "/>
<path style=" stroke:none;fill-rule:nonzero;fill:rgb(18.431373%,18.039216%,25.490196%);fill-opacity:1;" d="M 103.03125 506.28125 C 108.964844 512.066406 116.753906 518.015625 122.8125 511.851562 C 126.703125 507.628906 128.179688 500.25 126.429688 493.734375 C 123.53125 481.910156 115.558594 476.703125 107.9375 472.710938 C 98.027344 467.523438 87.238281 463.398438 77.011719 467.113281 C 66.78125 470.828125 57.742188 484.945312 59.585938 499.761719 C 61.074219 511.675781 68.957031 521.589844 67.835938 533.582031 C 66.710938 545.65625 57.1875 552.011719 48.777344 554.167969 C 40.371094 556.324219 30.960938 557.019531 24.917969 565.628906 C 17.210938 576.609375 19.136719 596.242188 26.390625 607.835938 C 33.640625 619.433594 44.585938 624.6875 55.195312 628.261719 C 69.246094 632.996094 84.445312 635.484375 97.792969 627.625 C 111.140625 619.769531 121.527344 598.621094 117.660156 578.789062 C 116.027344 570.410156 112.179688 563.332031 108.460938 556.4375 C 104.742188 549.546875 100.976562 542.335938 99.558594 533.882812 C 98.378906 526.835938 99.253906 518.652344 102.53125 513.367188 C 103.753906 511.46875 103.980469 508.664062 103.089844 506.417969 Z M 103.03125 506.28125 "/>
<path style=" stroke:none;fill-rule:nonzero;fill:rgb(80%,80%,80%);fill-opacity:1;" d="M 191 994.546875 L 1 994.546875 C 0.449219 994.546875 0 993.90625 0 993.121094 C 0 992.332031 0.449219 991.695312 1 991.695312 L 191 991.695312 C 191.550781 991.695312 192 992.332031 192 993.121094 C 192 993.90625 191.550781 994.546875 191 994.546875 Z M 191 994.546875 "/>
</g>
</svg>
